<svg width="20" height="20" viewBox="0 0 20 20" fill="none" xmlns="http://www.w3.org/2000/svg">
<path fill-rule="evenodd" clip-rule="evenodd" d="M19.6 10.2276C19.6 9.51849 19.5364 8.83667 19.4182 8.18213H10V12.0503H15.3818C15.15 13.3003 14.4454 14.3594 13.3864 15.0685V17.5776H16.6182C18.5091 15.8367 19.6 13.273 19.6 10.2276Z" fill="#4285F4"/>
<path fill-rule="evenodd" clip-rule="evenodd" d="M9.99983 19.9999C12.6998 19.9999 14.9635 19.1044 16.618 17.5772L13.3862 15.0681C12.4907 15.6681 11.3453 16.0226 9.99983 16.0226C7.39529 16.0226 5.19074 14.2635 4.40438 11.8999H1.06348V14.4908C2.70893 17.759 6.09074 19.9999 9.99983 19.9999Z" fill="#34A853"/>
<path fill-rule="evenodd" clip-rule="evenodd" d="M4.40454 11.8997C4.20454 11.2997 4.0909 10.6588 4.0909 9.99969C4.0909 9.3406 4.20454 8.69969 4.40454 8.09969V5.50879H1.06363C0.386363 6.85879 0 8.38606 0 9.99969C0 11.6133 0.386363 13.1406 1.06363 14.4906L4.40454 11.8997Z" fill="#FBBC05"/>
<path fill-rule="evenodd" clip-rule="evenodd" d="M9.99983 3.97727C11.468 3.97727 12.7862 4.48181 13.8225 5.47272L16.6907 2.60454C14.9589 0.990908 12.6953 0 9.99983 0C6.09074 0 2.70893 2.24091 1.06348 5.50908L4.40438 8.09999C5.19074 5.73636 7.39529 3.97727 9.99983 3.97727Z" fill="#EA4335"/>
</svg>
